<mxfile host="app.diagrams.net" modified="2023-09-20T14:25:10.650Z" agent="Mozilla/5.0 (Macintosh; Intel Mac OS X 10_15_7) AppleWebKit/537.36 (KHTML, like Gecko) Chrome/116.0.0.0 Safari/537.36" version="21.7.5" etag="1qsZq7xQkJlf3tWuAzyJ" type="github">
  <diagram name="페이지-1" id="aFLYE0tt8wG0443L8lD1">
    <mxGraphModel>
      <root>
        <mxCell id="0" />
        <mxCell id="1" parent="0" />
      </root>
    </mxGraphModel>
  </diagram>
</mxfile>
